<svg width="20" height="21" viewBox="0 0 20 21" fill="none" xmlns="http://www.w3.org/2000/svg">
<path d="M10 0.339844C4.49 0.339844 0 4.82984 0 10.3398C0 15.8498 4.49 20.3398 10 20.3398C15.51 20.3398 20 15.8498 20 10.3398C20 4.82984 15.51 0.339844 10 0.339844ZM14.78 8.03984L9.11 13.7098C8.97 13.8498 8.78 13.9298 8.58 13.9298C8.38 13.9298 8.19 13.8498 8.05 13.7098L5.22 10.8798C4.93 10.5898 4.93 10.1098 5.22 9.81984C5.51 9.52984 5.99 9.52984 6.28 9.81984L8.58 12.1198L13.72 6.97984C14.01 6.68984 14.49 6.68984 14.78 6.97984C15.07 7.26984 15.07 7.73984 14.78 8.03984Z" fill="#C92127"/>
</svg>
