<svg width="305" height="73" viewBox="0 0 305 73" fill="none" xmlns="http://www.w3.org/2000/svg">
<g clip-path="url(#clip0_445_1610)">
<path d="M63.5401 41.8398C69.8056 41.8398 78.7563 40.5398 78.7563 33.1398C78.7563 32.5398 78.7563 32.0398 78.5574 31.4398L74.8777 15.2398C73.9826 11.6398 73.2864 10.0398 67.0209 6.93984C62.2472 4.43984 51.7052 0.339844 48.6222 0.339844C45.7381 0.339844 44.843 4.13984 41.4616 4.13984C38.1797 4.13984 35.6934 1.33984 32.6103 1.33984C29.6267 1.33984 27.6377 3.33984 26.1459 7.53984C26.1459 7.53984 21.9689 19.4398 21.4716 21.1398C21.3722 21.4398 21.3722 21.7398 21.3722 22.1398C21.2727 26.7398 39.3731 41.8398 63.5401 41.8398ZM79.7508 36.1398C80.6459 40.2398 80.6459 40.6398 80.6459 41.2398C80.6459 48.2398 72.7892 52.1398 62.5455 52.1398C39.1742 52.1398 18.7864 38.3398 18.7864 29.3398C18.7864 28.0398 19.0848 26.8398 19.582 25.6398C11.228 26.1398 0.387695 27.5398 0.387695 37.2398C0.387695 52.9398 37.4835 72.3398 66.822 72.3398C89.2983 72.3398 94.9671 62.1398 94.9671 54.0398C95.0665 47.6398 89.5966 40.4398 79.7508 36.1398Z" fill="#EE0000"/>
<path d="M79.7505 36.1396C80.6456 40.2396 80.6456 40.6397 80.6456 41.2397C80.6456 48.2397 72.7889 52.1396 62.5453 52.1396C39.1739 52.1396 18.7861 38.3396 18.7861 29.3396C18.7861 28.0396 19.0845 26.8396 19.5818 25.6396L21.3719 21.1396C21.2724 21.4396 21.2724 21.7396 21.2724 22.1396C21.2724 26.7396 39.2734 41.8396 63.5398 41.8396C69.8053 41.8396 78.756 40.5396 78.756 33.1396C78.756 32.5396 78.756 32.0396 78.5571 31.4396L79.7505 36.1396Z" fill="black"/>
<path d="M288.402 46.5398C288.402 52.4398 291.983 55.3398 298.447 55.3398C300.436 55.3398 302.425 55.0398 304.315 54.5398V47.6398C303.121 48.0398 301.828 48.2398 300.535 48.2398C297.85 48.2398 296.856 47.4398 296.856 44.8398V34.2398H304.613V27.1398H296.856V18.1398L288.402 19.9398V27.1398H282.833V34.2398H288.402V46.5398ZM262.047 46.6398C262.047 44.8398 263.837 43.9398 266.622 43.9398C268.313 43.9398 270.004 44.1398 271.595 44.5398V48.1398C270.004 49.0398 268.114 49.4398 266.324 49.4398C263.738 49.4398 262.047 48.3398 262.047 46.6398ZM264.633 55.4398C267.617 55.4398 270.004 54.8398 272.291 53.2398V54.9398H280.645V37.1398C280.645 30.3398 276.07 26.6398 268.512 26.6398C264.235 26.6398 260.058 27.6398 255.583 29.6398L258.567 35.9398C261.848 34.5398 264.534 33.7398 266.921 33.7398C270.401 33.7398 272.191 35.1398 272.191 37.9398V39.3398C270.103 38.8398 268.014 38.5398 265.926 38.5398C258.765 38.5398 254.489 41.5398 254.489 46.9398C254.588 51.7398 258.467 55.4398 264.633 55.4398ZM218.686 54.9398H227.637V40.5398H242.654V54.9398H251.704V18.1398H242.754V32.3398H227.736V18.1398H218.785L218.686 54.9398ZM184.474 41.0398C184.474 37.0398 187.657 34.0398 191.734 34.0398C193.922 34.0398 196.011 34.7398 197.602 36.2398V45.9398C196.011 47.4398 193.922 48.2398 191.734 48.1398C187.657 48.1398 184.474 45.0398 184.474 41.0398ZM197.702 54.9398H206.056V16.3398L197.602 18.1398V28.6398C195.414 27.4398 193.027 26.7398 190.541 26.8398C182.485 26.8398 176.12 33.1398 176.12 41.0398C176.021 48.8398 182.187 55.2398 189.944 55.3398C190.044 55.3398 190.143 55.3398 190.243 55.3398C192.928 55.3398 195.514 54.5398 197.702 52.9398V54.9398ZM159.313 33.5398C161.998 33.5398 164.186 35.2398 165.081 37.9398H153.545C154.34 35.2398 156.429 33.5398 159.313 33.5398ZM144.992 41.1398C144.992 49.2398 151.556 55.5398 160.009 55.5398C164.683 55.5398 168.065 54.2398 171.546 51.3398L165.976 46.3398C164.683 47.7398 162.694 48.4398 160.407 48.4398C157.423 48.5398 154.738 46.7398 153.644 44.0398H173.435V41.9398C173.435 33.1398 167.567 26.7398 159.512 26.7398C151.655 26.6398 145.191 32.9398 145.091 40.8398C144.992 40.8398 144.992 40.9398 144.992 41.1398ZM130.472 25.8398C133.455 25.8398 135.146 27.7398 135.146 30.0398C135.146 32.3398 133.455 34.2398 130.472 34.2398H121.62V25.9398H130.472V25.8398ZM112.57 54.9398H121.521V41.5398H128.383L135.245 54.9398H145.29L137.234 40.2398C141.411 38.5398 144.196 34.4398 144.097 29.8398C144.097 23.2398 138.925 18.1398 131.168 18.1398H112.471V54.9398H112.57Z" fill="white"/>
</g>
<defs>
<clipPath id="clip0_445_1610">
<rect width="304.225" height="72" fill="white" transform="translate(0.387695 0.339844)"/>
</clipPath>
</defs>
</svg>
