<svg width="138" height="73" viewBox="0 0 138 73" fill="none" xmlns="http://www.w3.org/2000/svg">
<path d="M45.6997 48.1914H39.7085V71.896H45.6997V48.1914Z" fill="#00BCEB"/>
<path d="M94.0734 54.95C93.8515 54.8392 91.8545 53.7315 88.9698 53.7315C85.0866 53.7315 82.4238 56.39 82.4238 60.0454C82.4238 63.59 84.9756 66.3592 88.9698 66.3592C91.7435 66.3592 93.7406 65.2515 94.0734 65.1408V71.5654C93.2968 71.6762 91.2997 72.3408 88.6369 72.3408C81.8691 72.3408 75.9888 67.6885 75.9888 60.0454C75.9888 52.9562 81.3143 47.75 88.6369 47.75C91.4107 47.75 93.5187 48.4146 94.0734 48.6362V54.95Z" fill="#00BCEB"/>
<path d="M31.3879 54.9486C31.166 54.8378 29.1689 53.7301 26.3952 53.7301C22.512 53.7301 19.8492 56.3886 19.8492 60.044C19.8492 63.5886 22.401 66.3578 26.3952 66.3578C29.1689 66.3578 31.166 65.2501 31.3879 65.1394V71.564C30.6112 71.7855 28.6142 72.4501 25.9514 72.4501C19.1835 72.4501 13.3032 67.7978 13.3032 60.1548C13.3032 53.0655 18.6288 47.8594 25.9514 47.8594C28.7251 47.8594 30.8331 48.524 31.3879 48.7455V54.9486Z" fill="#00BCEB"/>
<path d="M125.472 60.0454C125.472 66.8023 120.258 72.3408 112.935 72.3408C105.613 72.3408 100.398 66.8023 100.398 60.0454C100.398 53.2885 105.613 47.75 112.935 47.75C120.258 47.75 125.472 53.2885 125.472 60.0454ZM112.935 53.8423C109.385 53.8423 106.722 56.6115 106.722 60.0454C106.722 63.4792 109.385 66.2485 112.935 66.2485C116.486 66.2485 119.148 63.4792 119.148 60.0454C119.148 56.6115 116.486 53.8423 112.935 53.8423Z" fill="#00BCEB"/>
<path d="M68.4446 53.6208C68.3336 53.6208 65.7818 52.8454 63.7847 52.8454C61.3438 52.8454 60.1234 53.6208 60.1234 54.8392C60.1234 56.2792 61.8986 56.8331 62.8971 57.0546L64.5614 57.6085C68.4446 58.8269 70.2198 61.4854 70.2198 64.3654C70.2198 70.3469 65.0052 72.3408 60.3453 72.3408C57.1278 72.3408 54.1322 71.7869 53.9103 71.6762V66.2485C54.465 66.3592 56.9059 67.1346 59.5687 67.1346C62.5643 67.1346 63.8957 66.2485 63.8957 64.9192C63.8957 63.7008 62.6752 63.0362 61.2329 62.5931C60.9 62.4823 60.3453 62.2608 59.9015 62.15C56.573 61.0423 53.7993 59.1592 53.7993 55.1715C53.7993 50.7408 57.1278 47.75 62.6752 47.75C65.5599 47.75 68.3336 48.4146 68.5555 48.5254V53.6208H68.4446Z" fill="#00BCEB"/>
<path d="M6.97903 22.7154C6.97903 21.0538 5.64765 19.7246 3.98341 19.7246C2.31918 19.7246 0.987793 21.0538 0.987793 22.7154V28.9185C0.987793 30.58 2.31918 31.9092 3.98341 31.9092C5.64765 31.9092 6.97903 30.58 6.97903 28.9185V22.7154Z" fill="#00BCEB"/>
<path d="M23.2886 14.5181C23.2886 12.8566 21.9572 11.5273 20.293 11.5273C18.6287 11.5273 17.2974 12.8566 17.2974 14.5181V28.9181C17.2974 30.5797 18.6287 31.9089 20.293 31.9089C21.9572 31.9089 23.2886 30.5797 23.2886 28.9181V14.5181Z" fill="#00BCEB"/>
<path d="M39.7085 3.33061C39.7085 1.66907 38.3771 0.339844 36.7129 0.339844C35.0487 0.339844 33.7173 1.66907 33.7173 3.33061V34.8998C33.7173 36.5614 35.0487 37.8906 36.7129 37.8906C38.3771 37.8906 39.7085 36.5614 39.7085 34.8998V3.33061Z" fill="#00BCEB"/>
<path d="M56.0181 14.5181C56.0181 12.8566 54.6867 11.5273 53.0225 11.5273C51.3582 11.5273 50.0269 12.8566 50.0269 14.5181V28.9181C50.0269 30.5797 51.3582 31.9089 53.0225 31.9089C54.6867 31.9089 56.0181 30.5797 56.0181 28.9181V14.5181Z" fill="#00BCEB"/>
<path d="M72.3277 22.7154C72.3277 21.0538 70.9963 19.7246 69.332 19.7246C67.6678 19.7246 66.3364 21.0538 66.3364 22.7154V28.9185C66.3364 30.58 67.6678 31.9092 69.332 31.9092C70.9963 31.9092 72.3277 30.58 72.3277 28.9185V22.7154Z" fill="#00BCEB"/>
<path d="M88.7486 14.5181C88.7486 12.8566 87.4172 11.5273 85.7529 11.5273C84.0887 11.5273 82.7573 12.8566 82.7573 14.5181V28.9181C82.7573 30.5797 84.0887 31.9089 85.7529 31.9089C87.4172 31.9089 88.7486 30.5797 88.7486 28.9181V14.5181Z" fill="#00BCEB"/>
<path d="M105.058 3.33061C105.058 1.66907 103.727 0.339844 102.063 0.339844C100.398 0.339844 99.0669 1.66907 99.0669 3.33061V34.8998C99.0669 36.5614 100.398 37.8906 102.063 37.8906C103.727 37.8906 105.058 36.5614 105.058 34.8998V3.33061Z" fill="#00BCEB"/>
<path d="M121.478 14.5181C121.478 12.8566 120.147 11.5273 118.482 11.5273C116.818 11.5273 115.487 12.8566 115.487 14.5181V28.9181C115.487 30.5797 116.818 31.9089 118.482 31.9089C120.147 31.9089 121.478 30.5797 121.478 28.9181V14.5181Z" fill="#00BCEB"/>
<path d="M137.788 22.7154C137.788 21.0538 136.456 19.7246 134.792 19.7246C133.128 19.7246 131.796 21.0538 131.796 22.7154V28.9185C131.796 30.58 133.128 31.9092 134.792 31.9092C136.456 31.9092 137.788 30.58 137.788 28.9185V22.7154Z" fill="#00BCEB"/>
</svg>
