<svg width="297" height="73" viewBox="0 0 297 73" fill="none" xmlns="http://www.w3.org/2000/svg">
<g clip-path="url(#clip0_445_1675)">
<path d="M71.6457 0.566406V58.1966H57.7269V14.4459H13.9336V0.566406H71.6457Z" fill="#0073E7"/>
<path d="M57.7271 58.196V72.1132H0.0527344V14.4453H13.9338V58.196H57.7271Z" fill="#0073E7"/>
<path d="M121.852 31.4936V0.566406H116.043L105.255 15.8791L94.6557 0.566406H88.6582V31.4936H94.6557V11.1269L103.369 23.9881H107.103L115.817 11.1269V31.4936H121.852Z" fill="#0073E7"/>
<path d="M137.393 31.4936H143.39V0.566406H137.393V31.4936Z" fill="#0073E7"/>
<path d="M189.257 28.3241V21.4598H183.222V25.42H164.966V6.5242H183.222V10.4467H189.257V3.62006C189.257 1.73426 188.013 0.527344 186.164 0.527344H162.099C160.439 0.527344 159.194 1.77197 159.194 3.62006V28.2864C159.194 29.9459 160.439 31.3791 162.099 31.3791H186.353C188.013 31.4923 189.257 30.2099 189.257 28.3241Z" fill="#0073E7"/>
<path d="M235.125 31.4927L225.997 19.0464H232.032C233.692 19.0464 235.125 17.8018 235.125 15.916V3.46967C235.125 1.62158 233.881 0.376953 232.032 0.376953H204.836V31.2664H210.871V18.8201H218.34L227.468 31.2664H235.163V31.4927H235.125ZM210.833 6.60011H229.09V13.0496H210.833V6.60011Z" fill="#0073E7"/>
<path d="M280.956 28.3241V3.62006C280.956 1.73426 279.711 0.527344 277.863 0.527344H253.609C251.949 0.527344 250.704 1.77197 250.704 3.62006V28.2864C250.704 29.9459 251.949 31.3791 253.609 31.3791H278.051C279.711 31.4923 280.956 30.2099 280.956 28.3241ZM256.664 6.59963H274.921V25.4954H256.664V6.59963Z" fill="#0073E7"/>
<path d="M118.91 47.2192V40.9961H88.6582V71.8856H94.6557V59.6656H112.686V53.4424H94.6557V47.2192H118.91Z" fill="#0073E7"/>
<path d="M157.535 69.0205V44.1279C157.535 42.2421 156.29 41.0352 154.442 41.0352H130.376C128.716 41.0352 127.472 42.2798 127.472 44.1279V68.7942C127.472 70.4537 128.716 71.8869 130.376 71.8869H154.668C156.29 71.8869 157.535 70.6423 157.535 69.0205ZM133.469 47.2206H151.5V66.0786H133.243V47.2206H133.469Z" fill="#0073E7"/>
<path d="M198.801 69.0208V62.1941H192.766V66.1166H174.51V47.2586H192.804V51.2188H198.839V44.3544C198.839 42.5063 197.594 41.2617 195.746 41.2617H171.454C169.795 41.2617 168.55 42.5063 168.55 44.3544V69.0585C168.55 70.718 169.795 72.1512 171.454 72.1512H195.708C197.33 71.8872 198.801 70.6425 198.801 69.0208Z" fill="#0073E7"/>
<path d="M239.878 69.0205V41.0352H233.843V65.9278H215.586V41.0352H209.589V68.8319C209.589 70.4914 210.834 71.9246 212.493 71.9246H236.747C238.633 71.8869 239.878 70.6423 239.878 69.0205Z" fill="#0073E7"/>
<path d="M280.956 69.0208V56.763C280.956 55.1035 279.711 53.6703 277.862 53.6703H256.701V47.2586H274.958V50.5776H280.956V44.3544C280.956 42.5063 279.711 41.2617 277.862 41.2617H253.608C251.949 41.2617 250.704 42.5063 250.704 44.3544V56.6122C250.704 58.2717 251.949 59.7049 253.608 59.7049H274.769V66.1166H256.513V63.0239H250.478V69.2471C250.478 70.9066 251.722 72.3398 253.382 72.3398H277.636C279.711 71.8872 280.956 70.6426 280.956 69.0208Z" fill="#0073E7"/>
<path d="M291.14 12.1437C288.047 12.1437 285.558 9.65443 285.558 6.52399C285.558 3.39356 288.047 0.904297 291.14 0.904297C294.233 0.904297 296.723 3.39356 296.723 6.52399C296.723 9.65443 294.233 12.1437 291.14 12.1437ZM291.14 1.39461C288.236 1.39461 285.935 3.69529 285.935 6.59943C285.935 9.50356 288.236 11.5779 291.14 11.5779C294.045 11.5779 296.119 9.27727 296.119 6.59943C296.082 3.65757 294.007 1.39461 291.14 1.39461ZM292.574 10.0693L291.14 6.97659H289.895V10.0693H289.066V3.0164H291.14C292.8 3.0164 293.441 3.65757 293.441 5.09078C293.441 6.14683 293.026 6.75029 292.008 6.97659L293.441 10.0693H292.574ZM289.858 6.14683H291.102C292.159 6.14683 292.536 5.73196 292.536 4.9022C292.536 4.07245 292.121 3.65757 291.102 3.65757H290.046V6.14683H289.858Z" fill="#0073E7"/>
</g>
<defs>
<clipPath id="clip0_445_1675">
<rect width="296.67" height="72" fill="white" transform="translate(0.0527344 0.339844)"/>
</clipPath>
</defs>
</svg>
