<svg width="323" height="73" viewBox="0 0 323 73" fill="none" xmlns="http://www.w3.org/2000/svg">
<g clip-path="url(#clip0_445_1572)">
<path d="M239.581 57.5088H240.873V61.9248C241.542 61.0128 242.547 60.4368 243.695 60.4368C245.848 60.4368 247.379 62.1648 247.379 64.8048C247.379 67.4928 245.848 69.1728 243.695 69.1728C242.547 69.1728 241.542 68.5968 240.873 67.7328V68.9808H239.581V57.5088ZM243.313 68.0208C244.987 68.0208 245.991 66.6768 245.991 64.8048C245.991 62.9328 244.987 61.5888 243.313 61.5888C242.308 61.5888 241.303 62.2128 240.873 62.9328V66.6768C241.303 67.4448 242.308 68.0208 243.313 68.0208Z" fill="#AAAAAA"/>
<path d="M249.867 71.1888C250.441 71.1888 250.824 70.9968 251.111 70.3248L251.637 69.0768L248.192 60.6768H249.58L252.354 67.4928L255.081 60.6768H256.469L252.307 70.6608C251.828 71.8608 250.967 72.3408 249.867 72.3408C249.58 72.3408 249.149 72.2928 248.91 72.2448L249.101 71.0928C249.388 71.1408 249.675 71.1888 249.867 71.1888Z" fill="#AAAAAA"/>
<path d="M321.147 54.5326C321.195 54.4366 321.242 54.3886 321.29 54.2926C321.338 54.1966 321.434 54.1966 321.529 54.1486C321.625 54.1006 321.721 54.1006 321.817 54.1006C321.912 54.1006 322.008 54.1006 322.104 54.1486C322.199 54.1966 322.295 54.2446 322.343 54.2926C322.391 54.3406 322.486 54.4366 322.486 54.5326C322.486 54.6286 322.534 54.7246 322.534 54.8206C322.534 54.9166 322.534 55.0126 322.486 55.1086C322.438 55.2046 322.391 55.3006 322.343 55.3486C322.295 55.3966 322.199 55.4446 322.104 55.4926C322.008 55.5406 321.912 55.5406 321.817 55.5406C321.721 55.5406 321.625 55.5406 321.529 55.4926C321.434 55.4446 321.338 55.3966 321.29 55.3486C321.242 55.3006 321.147 55.2046 321.147 55.1086C321.099 55.0126 321.099 54.9166 321.099 54.8206C321.051 54.7246 321.099 54.5806 321.147 54.5326ZM321.242 55.0606C321.29 55.1566 321.338 55.2046 321.386 55.2526C321.434 55.3006 321.482 55.3486 321.577 55.3966C321.673 55.4446 321.721 55.4446 321.817 55.4446C321.912 55.4446 321.96 55.4446 322.056 55.3966C322.151 55.3486 322.199 55.3006 322.247 55.2526C322.295 55.2046 322.343 55.1086 322.391 55.0606C322.438 54.9646 322.438 54.9166 322.438 54.8206C322.438 54.7246 322.438 54.6286 322.391 54.5806C322.343 54.5326 322.295 54.4366 322.247 54.3886C322.199 54.3406 322.151 54.2926 322.056 54.2446C321.96 54.1966 321.912 54.1966 321.817 54.1966C321.721 54.1966 321.673 54.1966 321.577 54.2446C321.482 54.2926 321.434 54.3406 321.386 54.3886C321.338 54.4366 321.29 54.5326 321.242 54.5806C321.195 54.6286 321.195 54.7246 321.195 54.8206C321.195 54.9166 321.195 54.9646 321.242 55.0606ZM321.864 54.3886C321.96 54.3886 322.056 54.3886 322.104 54.4366C322.151 54.4846 322.199 54.5326 322.199 54.6286C322.199 54.7246 322.199 54.7726 322.151 54.8206C322.104 54.8686 322.056 54.8686 322.008 54.8686L322.247 55.2526H322.104L321.864 54.8686H321.673V55.2526H321.529V54.3886H321.864ZM321.817 54.7726C321.864 54.7726 321.864 54.7726 321.912 54.7726C321.96 54.7726 321.96 54.7726 322.008 54.7726C322.056 54.7726 322.056 54.7726 322.056 54.7246C322.056 54.7246 322.056 54.6766 322.056 54.6286C322.056 54.5806 322.056 54.5806 322.056 54.5806L322.008 54.5326H321.96H321.912H321.673V54.8206H321.817V54.7726Z" fill="#FB4F14"/>
<path d="M275.221 68.5482C275.413 68.6922 275.652 68.6922 275.795 68.5482C275.939 68.4522 276.082 68.3082 276.274 68.1162C276.465 67.9242 276.657 67.7322 276.8 67.5882C276.991 67.3962 276.944 67.0602 276.752 66.8682L275.461 65.9082C275.461 65.9082 275.221 66.2442 274.743 66.6762C274.265 67.1562 273.882 67.4442 273.882 67.4442L275.221 68.5482Z" fill="#FB4F14"/>
<path d="M289.43 64.2289C289.43 67.5889 287.038 69.1249 284.359 69.1249C281.68 69.1249 279.288 67.5409 279.288 64.2289V57.9409C279.288 57.7009 279.479 57.4609 279.766 57.4609H281.058V64.0849C281.058 66.3889 282.445 67.4929 284.359 67.4929C286.273 67.4929 287.66 66.3889 287.66 64.0849V57.4609H288.999C289.239 57.4609 289.478 57.6529 289.478 57.9409V64.2289H289.43Z" fill="#FB4F14"/>
<path d="M302.06 63.2205V63.4125C302.06 63.7005 301.821 63.8925 301.581 63.8925H293.114C293.353 66.2925 295.027 67.5405 297.084 67.5405C298.328 67.5405 299.381 67.1085 300.29 66.4365C300.481 66.2925 300.768 66.3405 300.912 66.5325L301.581 67.3965C300.194 68.7405 298.615 69.1725 296.989 69.1725C293.688 69.1725 291.344 66.8205 291.344 63.3645C291.344 59.9085 293.688 57.5565 296.893 57.5565C299.811 57.4605 302.012 59.8125 302.06 63.2205ZM293.066 62.4525H300.242C300.003 60.3405 298.663 58.9965 296.75 58.9965C294.693 58.9965 293.353 60.4365 293.066 62.4525Z" fill="#FB4F14"/>
<path d="M312.105 59.6201C312.009 59.8601 311.675 59.9081 311.483 59.8121C310.718 59.3801 309.474 58.9961 308.23 58.9961C306.651 58.9961 305.599 59.6681 305.599 60.7721C305.599 61.7321 306.412 62.1641 307.895 62.3561L309.235 62.5481C311.627 62.8361 312.966 63.8441 312.966 65.6681C312.966 67.7801 311.053 69.1241 308.039 69.1241C306.604 69.1241 304.786 68.7881 303.351 67.6841L303.877 66.8201C304.02 66.5801 304.355 66.4841 304.594 66.6281C305.408 67.1561 306.46 67.5401 308.039 67.5401C309.905 67.5401 311.101 66.9161 311.101 65.7161C311.101 64.8041 310.335 64.2761 308.756 64.0841L307.417 63.9401C304.929 63.6521 303.733 62.5001 303.733 60.8201C303.733 58.7081 305.503 57.4121 308.182 57.4121C309.761 57.4121 311.148 57.7961 312.201 58.3721C312.44 58.4681 312.488 58.8041 312.392 58.9961L312.105 59.6201Z" fill="#FB4F14"/>
<path d="M321.96 67.0606C321.816 66.8206 321.529 66.7726 321.338 66.9166C320.764 67.2526 320.094 67.4446 319.377 67.4446C318.085 67.4446 317.176 66.6766 317.176 64.9486V59.0926H320.142C320.381 59.0926 320.62 58.9006 320.62 58.6126V57.4606H317.176V54.5806C317.176 54.3406 316.985 54.1006 316.698 54.1006H315.406V57.4606H314.688C314.401 57.4606 314.162 57.7006 314.162 57.9886V59.0446H315.406V64.9486C315.406 67.7806 316.841 69.0766 319.233 69.0766C320.62 69.0766 321.721 68.5966 322.534 67.9726L321.96 67.0606Z" fill="#FB4F14"/>
<path d="M277.231 60.3886C277.039 55.7806 273.164 52.1326 268.572 52.3246C268.333 52.3246 268.046 52.3726 267.806 52.3726C263.549 52.9006 260.344 56.6446 260.487 61.0126C260.678 65.6206 264.553 69.2686 269.146 69.0766C270.82 69.0286 272.399 68.4526 273.786 67.4446L272.495 66.4846C272.351 66.3886 272.16 66.3886 272.016 66.4366C271.012 67.0126 269.911 67.3006 268.668 67.2526C265.271 67.1566 262.496 64.4206 262.353 61.0606C262.161 57.1246 265.462 53.9086 269.433 54.2926C272.59 54.5806 275.078 57.1246 275.317 60.2926C275.413 61.8286 274.982 63.2686 274.217 64.4206C274.073 64.6126 274.121 64.9006 274.313 65.0446L275.413 65.8606C276.657 64.3726 277.326 62.4046 277.231 60.3886Z" fill="#FB4F14"/>
<path d="M50.4248 14.068C50.4248 13.588 50.8554 13.252 51.2859 13.252H51.9557C52.434 13.252 52.7211 13.588 53.056 13.924L70.3259 30.58H70.3737V14.596C70.3737 14.116 70.7086 13.732 71.2348 13.732H76.6407C77.1191 13.732 77.5018 14.164 77.5018 14.596V44.98C77.5018 45.508 77.0712 45.796 76.6407 45.796H76.1623C75.6839 45.796 75.3968 45.652 75.062 45.316L57.6007 27.604H57.5528V44.452C57.5528 44.932 57.218 45.316 56.6917 45.316H51.3337C50.8554 45.316 50.4726 44.884 50.4726 44.452L50.4248 14.068Z" fill="#04AADA"/>
<path d="M83.0029 14.5964C83.0029 14.1164 83.3378 13.7324 83.864 13.7324H102.521C103 13.7324 103.382 14.1644 103.382 14.5964V19.5404C103.382 20.0204 103.048 20.4044 102.521 20.4044H90.0353V26.0204H100.321C100.799 26.0204 101.182 26.4524 101.182 26.8844V31.8284C101.182 32.3084 100.751 32.6924 100.321 32.6924H90.0353V38.7884H102.521C103 38.7884 103.382 39.2204 103.382 39.6524V44.5964C103.382 45.0764 103.048 45.4604 102.521 45.4604H83.9119C83.4335 45.4604 83.0508 45.0284 83.0508 44.5964L83.0029 14.5964Z" fill="#04AADA"/>
<path d="M125.724 14.4519C125.724 13.9719 126.154 13.5879 126.585 13.5879H131.991C132.469 13.5879 132.852 14.0199 132.852 14.4519V44.3559C132.852 44.8359 132.421 45.2199 131.991 45.2199H126.585C126.106 45.2199 125.724 44.7879 125.724 44.3559V14.4519Z" fill="#40535D"/>
<path d="M138.593 14.4519C138.593 13.9719 138.928 13.5879 139.406 13.5879H150.361C159.068 13.5879 166.148 20.6919 166.148 29.3319C166.148 38.1159 159.02 45.1719 150.361 45.1719H139.406C138.928 45.1719 138.593 44.7399 138.593 44.3079V14.4519ZM150.313 38.5479C155.384 38.5479 158.685 34.5159 158.685 29.3799C158.685 24.2919 155.384 20.2599 150.313 20.2599H145.577V38.5479H150.313Z" fill="#40535D"/>
<path d="M170.979 14.4519C170.979 13.9719 171.314 13.5879 171.841 13.5879H190.45C190.928 13.5879 191.311 14.0199 191.311 14.4519V19.3959C191.311 19.8759 190.976 20.2599 190.45 20.2599H177.964V25.8759H188.249C188.728 25.8759 189.111 26.3079 189.111 26.7399V31.6839C189.111 32.1639 188.68 32.5479 188.249 32.5479H177.964V38.6439H190.45C190.928 38.6439 191.311 39.0759 191.311 39.5079V44.4519C191.311 44.9319 190.976 45.3159 190.45 45.3159H171.841C171.362 45.3159 170.979 44.8839 170.979 44.4519V14.4519Z" fill="#40535D"/>
<path d="M196.143 13.9722C196.143 13.4922 196.573 13.1562 197.004 13.1562H197.673C198.152 13.1562 198.439 13.4922 198.774 13.8282L216.044 30.4842H216.091V14.4522C216.091 13.9722 216.426 13.5882 216.953 13.5882H222.358C222.789 13.5882 223.22 14.0202 223.22 14.4522V44.8362C223.22 45.3643 222.789 45.6522 222.358 45.6522H221.88C221.402 45.6522 221.115 45.5082 220.78 45.1722L203.271 27.5082H203.223V44.3562C203.223 44.8362 202.888 45.2202 202.362 45.2202H197.004C196.525 45.2202 196.143 44.7882 196.143 44.3562V13.9722Z" fill="#40535D"/>
<path d="M236.376 20.2599H229.966C229.487 20.2599 229.104 19.8279 229.104 19.3959V14.4519C229.104 13.9719 229.439 13.5879 229.966 13.5879H249.915C250.393 13.5879 250.776 14.0199 250.776 14.4519V19.3959C250.776 19.8759 250.441 20.2599 249.915 20.2599H243.504V44.4039C243.504 44.8839 243.074 45.2679 242.643 45.2679H237.237C236.759 45.2679 236.376 44.8359 236.376 44.4039V20.2599Z" fill="#40535D"/>
<path d="M256.611 14.4519C256.611 13.9719 257.042 13.5879 257.472 13.5879H262.878C263.357 13.5879 263.739 14.0199 263.739 14.4519V44.3559C263.739 44.8359 263.309 45.2199 262.878 45.2199H257.472C256.994 45.2199 256.611 44.7879 256.611 44.3559V14.4519Z" fill="#40535D"/>
<path d="M276.608 20.2599H270.198C269.72 20.2599 269.337 19.8279 269.337 19.3959V14.4519C269.337 13.9719 269.672 13.5879 270.198 13.5879H290.195C290.673 13.5879 291.056 14.0199 291.056 14.4519V19.3959C291.056 19.8759 290.721 20.2599 290.195 20.2599H283.784V44.4039C283.784 44.8839 283.354 45.2679 282.923 45.2679H277.517C277.039 45.2679 276.656 44.8359 276.656 44.4039L276.608 20.2599Z" fill="#40535D"/>
<path d="M304.977 30.0516L295.026 14.9796C294.691 14.4036 295.026 13.6836 295.744 13.6836H301.58C301.915 13.6836 302.154 13.9236 302.298 14.1156L308.564 23.3796L314.831 14.1156C314.975 13.9236 315.118 13.6836 315.549 13.6836H321.385C322.103 13.6836 322.486 14.4036 322.103 14.9796L312.105 30.0036V44.4036C312.105 44.8836 311.674 45.2676 311.243 45.2676H305.885C305.407 45.2676 305.024 44.8356 305.024 44.4036L304.977 30.0516Z" fill="#40535D"/>
<path d="M41.1437 50.453C33.3459 55.061 23.6824 55.109 15.8368 50.645C7.99114 46.181 3.06371 37.781 3.01587 28.709H0.193359C0.241199 38.789 5.69486 48.053 14.4494 53.045C23.204 58.037 33.8721 57.941 42.5788 52.853L41.1437 50.453Z" fill="#04AADA"/>
<path d="M15.5022 6.67652C23.3 2.06852 32.9635 2.02052 40.8091 6.48452L42.1965 4.03652C33.4419 -0.955482 22.7259 -0.907482 14.067 4.22852C5.40815 9.31652 0.145844 18.6765 0.193683 28.7565H3.01619C2.92051 19.6845 7.70443 11.2365 15.5022 6.67652Z" fill="#04AADA"/>
<path d="M28.3232 5.95605C36.3602 5.95605 43.7753 10.2761 47.7938 17.2361L45.354 18.6281C41.8617 12.5321 35.3556 8.74005 28.3232 8.74005V5.95605Z" fill="#04AADA"/>
<path d="M47.7936 39.8443L45.3538 38.4523C41.8137 44.5003 35.3554 48.2923 28.3231 48.2923C21.2907 48.2923 14.7846 44.5003 11.2923 38.4043L8.85254 39.7963C12.871 46.7563 20.2861 51.0763 28.3231 51.0763C36.36 51.1243 43.7751 46.8043 47.7936 39.8443Z" fill="#04AADA"/>
<path d="M11.2447 18.6762L8.80488 17.2842C4.78639 24.2442 4.78639 32.8842 8.80488 39.8442L11.2447 38.4522C7.75242 32.3082 7.75242 24.7722 11.2447 18.6762Z" fill="#04AADA"/>
<path d="M28.323 11.6201C34.3508 11.6201 39.9001 14.8361 42.914 20.0681C45.9278 25.3001 45.9278 31.7321 42.914 37.0121C39.9001 42.2921 34.3508 45.4601 28.323 45.4601C22.2953 45.4601 16.7459 42.2441 13.7321 37.0121C10.7182 31.7801 10.7182 25.3481 13.7321 20.0681C16.6981 14.8361 22.2953 11.6201 28.323 11.6201ZM19.8077 23.6201C18.0376 26.6441 18.0376 30.4361 19.8077 33.5081C21.5777 36.5321 24.8308 38.4521 28.323 38.4521C31.8153 38.4521 35.1162 36.5801 36.8384 33.5081C38.6084 30.4841 38.6084 26.6921 36.8384 23.6201C35.0683 20.5961 31.8153 18.6761 28.323 18.6761C24.7829 18.6761 21.5299 20.5481 19.8077 23.6201Z" fill="#04AADA"/>
</g>
<defs>
<clipPath id="clip0_445_1572">
<rect width="322.388" height="72" fill="white" transform="translate(0.193359 0.339844)"/>
</clipPath>
</defs>
</svg>
