<svg width="181" height="73" viewBox="0 0 181 73" fill="none" xmlns="http://www.w3.org/2000/svg">
<g clip-path="url(#clip0_445_1616)">
<path d="M35.6008 67.3213H0.613281V72.3393H35.6008V67.3213Z" fill="#20C2EF"/>
<path d="M35.6008 57.7363H0.613281V62.7543H35.6008V57.7363Z" fill="#20C2EF"/>
<path d="M25.6447 48.1514H10.626V53.1694H25.6447V48.1514Z" fill="#20C2EF"/>
<path d="M25.6447 38.623H10.626V43.6411H25.6447V38.623Z" fill="#20C2EF"/>
<path d="M25.6447 29.0381H10.626V34.0561H25.6447V29.0381Z" fill="#20C2EF"/>
<path d="M25.6447 19.4531H10.626V24.4711H25.6447V19.4531Z" fill="#20C2EF"/>
<path d="M35.6008 9.9248H0.613281V14.9428H35.6008V9.9248Z" fill="#20C2EF"/>
<path d="M35.6008 0.339844H0.613281V5.35785H35.6008V0.339844Z" fill="#20C2EF"/>
<path d="M40.6074 62.7543H93.9887C94.8887 61.1756 95.5637 59.4842 96.0137 57.7363H40.6074V62.7543Z" fill="#20C2EF"/>
<path d="M89.7691 38.623H50.6191V43.6411H93.9879C92.8629 41.7241 91.4566 40.0326 89.7691 38.623Z" fill="#20C2EF"/>
<path d="M50.6191 29.0381V34.0561H89.7691C91.4566 32.6465 92.8629 30.9551 93.9316 29.0381H50.6191Z" fill="#20C2EF"/>
<path d="M93.9887 9.9248H40.6074V14.9428H95.9574C95.5637 13.1386 94.8887 11.4471 93.9887 9.9248Z" fill="#20C2EF"/>
<path d="M77.4512 0.339844H40.6074V5.35785H90.3324C86.7887 2.14407 82.1762 0.339844 77.4512 0.339844Z" fill="#20C2EF"/>
<path d="M65.6379 19.4531H50.6191V24.4711H65.6379V19.4531Z" fill="#20C2EF"/>
<path d="M79.7012 24.4711H95.8449C96.2949 22.8361 96.5199 21.1446 96.5199 19.4531H79.7012V24.4711Z" fill="#20C2EF"/>
<path d="M65.6379 48.1514H50.6191V53.1694H65.6379V48.1514Z" fill="#20C2EF"/>
<path d="M79.7012 48.1514V53.1694H96.5199C96.5199 51.4779 96.2949 49.7864 95.8449 48.1514H79.7012Z" fill="#20C2EF"/>
<path d="M40.6074 72.2839L77.4512 72.3403C82.2324 72.3403 86.8449 70.536 90.3324 67.3223H40.6074V72.2839Z" fill="#20C2EF"/>
<path d="M140.62 72.3393L142.363 67.3213H138.876L140.62 72.3393Z" fill="#20C2EF"/>
<path d="M137.301 62.7543H143.938L145.682 57.7363H135.501L137.301 62.7543Z" fill="#20C2EF"/>
<path d="M133.925 53.1694H147.313L149.057 48.1514H132.182L133.925 53.1694Z" fill="#20C2EF"/>
<path d="M130.55 43.6411H150.632L152.432 38.623H128.807L130.55 43.6411Z" fill="#20C2EF"/>
<path d="M110.639 24.4711H137.639L135.895 19.4531H110.639V24.4711Z" fill="#20C2EF"/>
<path d="M146.92 14.9428H180.614V9.9248H148.664L146.92 14.9428Z" fill="#20C2EF"/>
<path d="M151.982 0.339844L150.238 5.35785H180.613V0.339844H151.982Z" fill="#20C2EF"/>
<path d="M125.601 67.3213H100.626V72.3393H125.601V67.3213Z" fill="#20C2EF"/>
<path d="M125.601 57.7363H100.626V62.7543H125.601V57.7363Z" fill="#20C2EF"/>
<path d="M125.657 48.1514H110.639V53.1694H125.657V48.1514Z" fill="#20C2EF"/>
<path d="M125.657 38.623H110.639V43.6411H125.657V38.623Z" fill="#20C2EF"/>
<path d="M170.601 19.4531H145.344L143.601 24.4711H170.601V19.4531Z" fill="#20C2EF"/>
<path d="M155.639 34.0561H170.601V29.0381H155.639H142.026L140.62 33.0976L139.214 29.0381H125.601H110.639V34.0561H125.601V29.4328L127.232 34.0561H154.007L155.639 29.4328V34.0561Z" fill="#20C2EF"/>
<path d="M170.657 38.623H155.639V43.6411H170.657V38.623Z" fill="#20C2EF"/>
<path d="M170.657 48.1514H155.639V53.1694H170.657V48.1514Z" fill="#20C2EF"/>
<path d="M180.614 57.7363H155.639V62.7543H180.614V57.7363Z" fill="#20C2EF"/>
<path d="M180.614 67.3223H155.639V72.3403H180.614V67.3223Z" fill="#20C2EF"/>
<path d="M134.32 14.9428L132.576 9.9248H100.626V14.9428H134.32Z" fill="#20C2EF"/>
<path d="M131.001 5.35785L129.257 0.339844H100.626V5.35785H131.001Z" fill="#20C2EF"/>
</g>
<defs>
<clipPath id="clip0_445_1616">
<rect width="180" height="72" fill="white" transform="translate(0.613281 0.339844)"/>
</clipPath>
</defs>
</svg>
