<svg width="321" height="67" viewBox="0 0 321 67" fill="none" xmlns="http://www.w3.org/2000/svg">
<g clip-path="url(#clip0_445_1671)">
<path d="M9.18725 66.3396C6.39054 66.3803 3.61228 65.8848 1.00543 64.8802V60.664C3.66353 61.5037 6.4077 62.0476 9.18725 62.2856C11.8054 62.2856 14.5873 61.7991 14.5873 58.5558C14.5873 56.1234 12.7873 55.4748 10.4963 54.8261L8.20543 54.3396C5.42362 53.5288 0.841797 52.3937 0.841797 46.8802C0.841797 40.718 5.91452 39.2586 11.1509 39.2586C13.6872 39.1632 16.2103 39.6633 18.5145 40.718V44.7721C16.1389 43.7417 13.5801 43.1905 10.9873 43.1504C7.71452 43.1504 5.58725 43.7991 5.58725 46.5558C5.58725 48.9883 7.55089 49.6369 9.8418 50.1234L12.2963 50.9342C15.4054 51.745 19.1691 53.5288 19.1691 58.3937C19.3327 64.5558 14.7509 66.3396 9.18725 66.3396ZM37.0054 66.3396C41.9145 66.3396 49.2782 64.8802 49.2782 52.718C49.2782 40.718 41.7509 39.0964 37.0054 39.0964C31.9327 39.0964 24.7327 41.0423 24.7327 52.718C24.7327 64.718 31.7691 66.3396 37.0054 66.3396ZM37.0054 42.8261C39.7873 42.8261 44.3691 43.4748 44.3691 52.718C44.3691 61.6369 39.46 62.6099 37.0054 62.6099C35.0418 62.6099 29.6418 61.9613 29.6418 52.718C29.6418 43.6369 34.2236 42.8261 37.0054 42.8261ZM55.66 65.8531H60.5691V30.9883H55.66V65.8531ZM89.5327 65.8531V48.1775C89.5327 41.3667 85.6054 39.2586 79.7145 39.2586C76.3101 39.2969 72.9362 39.8999 69.7327 41.0423V45.0964C72.6873 44.0771 75.7723 43.4766 78.8963 43.3126C82.3327 43.3126 84.2963 44.1234 84.2963 47.5288V49.7991H78.4054C74.1509 49.7991 67.2782 51.2586 67.2782 58.3937C67.2782 65.0423 71.6963 66.5018 75.7873 66.5018C77.4279 66.4947 79.0485 66.1443 80.543 65.4737C82.0376 64.803 83.3723 63.8271 84.46 62.6099L84.9509 66.0153L89.5327 65.8531ZM84.6236 59.0423C84.6236 59.0423 81.0236 62.4477 77.4236 62.4477C74.8054 62.4477 72.6782 61.4748 72.6782 58.0694C72.6782 53.8531 75.2963 52.718 79.8782 52.5559H84.6236V59.0423ZM107.533 43.6369C108.939 43.617 110.333 43.8934 111.624 44.4477V39.9072C110.502 39.3797 109.26 39.1559 108.024 39.2586C106.704 39.2704 105.415 39.6592 104.312 40.3782C103.209 41.0972 102.339 42.116 101.805 43.3126L101.151 39.745H97.3873V65.8531H102.296V46.718C102.296 46.718 104.587 43.6369 107.533 43.6369ZM157.933 39.5829H152.369L149.26 54.664C148.442 58.5558 147.624 63.5829 147.624 63.5829C147.624 63.5829 146.478 58.0694 145.496 54.664L140.915 39.5829H133.715L129.133 54.664C128.151 58.0694 127.005 63.5829 127.005 63.5829C127.005 63.5829 126.187 58.2315 125.369 54.664L122.096 39.5829H116.369L123.569 65.8531H130.442L134.533 51.9072C135.515 48.3396 137.315 42.1775 137.315 42.1775C137.315 42.1775 138.951 48.3396 139.933 52.0694L144.024 66.0153H150.896L157.933 39.5829ZM164.151 65.8531H169.06V39.4207H164.151V65.8531ZM200.315 65.8531V48.0153C200.315 41.3667 196.551 39.2586 191.805 39.2586C188.089 39.49 184.566 40.9783 181.824 43.4748L180.842 39.745H177.078V65.8531H181.987V46.718C184.511 44.8463 187.518 43.7217 190.66 43.4748C194.096 43.4748 195.405 44.7721 195.405 48.0153V65.8531H200.315ZM230.096 65.8531V30.9883H225.187V41.691C224.252 40.8108 223.146 40.1271 221.937 39.6813C220.727 39.2354 219.44 39.0364 218.151 39.0964C214.551 39.0964 206.205 40.718 206.205 52.718C206.205 64.3937 213.078 66.3396 217.169 66.3396C218.778 66.3823 220.376 66.0697 221.848 65.4246C223.319 64.7795 224.628 63.8181 225.678 62.6099L226.169 65.8531H230.096ZM225.187 59.3667C223.227 61.1015 220.765 62.1796 218.151 62.4477C215.042 62.4477 211.115 61.4748 211.115 52.718C211.115 44.4477 214.878 43.1504 218.642 43.1504C221.059 43.2465 223.37 44.1625 225.187 45.745V59.3667ZM245.478 66.3396C251.042 66.3396 255.46 64.718 255.46 58.3937C255.46 53.5288 251.533 51.745 248.587 50.9342L245.969 50.2856C243.678 49.6369 241.715 49.1504 241.715 46.718C241.715 43.9613 243.842 43.3126 247.115 43.3126C249.707 43.3526 252.266 43.9039 254.642 44.9342V40.8802C252.338 39.8255 249.814 39.3254 247.278 39.4207C242.042 39.4207 236.969 40.8802 236.969 47.0423C236.969 52.5558 241.551 53.691 244.333 54.5018L246.46 55.1504C248.751 55.7991 250.551 56.2856 250.551 58.8802C250.551 62.1234 247.933 62.6099 245.151 62.6099C242.371 62.3719 239.627 61.828 236.969 60.9883V65.2045C237.133 64.8802 240.569 66.3396 245.478 66.3396Z" fill="white"/>
<path d="M271.86 29.6912C268.26 30.6642 264.66 31.475 261.06 32.6101C253.643 25.9884 244.312 21.847 234.388 20.7723C249.083 10.3148 266.697 4.64749 284.788 4.55606L278.57 10.2317C278.57 10.2317 304.915 9.25876 311.46 0.339844C311.263 1.2792 310.99 2.20115 310.642 3.0966C308.767 8.39456 305.421 13.0601 300.988 16.5561C296.848 19.7647 292.277 22.3846 287.406 24.3398C282.562 26.4344 277.588 28.2218 272.515 29.6912C272.351 29.529 272.024 29.6912 271.86 29.6912ZM313.097 28.8804C296.39 28.13 279.677 30.214 263.679 35.0425C267.059 38.5389 269.874 42.5319 272.024 46.8804C285.279 39.5831 303.606 30.1777 313.097 28.8804ZM273.66 50.6101C275.235 54.6128 276.227 58.8171 276.606 63.0966L299.679 39.5831L273.66 50.6101ZM286.097 62.9344C286.478 62.9041 286.843 62.7642 287.146 62.5319C287.448 62.2995 287.676 61.9848 287.801 61.6261C287.926 61.2675 287.943 60.8805 287.85 60.5126C287.756 60.1446 287.557 59.8115 287.275 59.5542C286.994 59.2968 286.643 59.1263 286.266 59.0634C285.888 59.0006 285.5 59.0482 285.149 59.2003C284.799 59.3525 284.5 59.6027 284.291 59.9203C284.081 60.2378 283.97 60.6091 283.97 60.9885C283.964 61.2597 284.016 61.529 284.123 61.7786C284.23 62.0282 284.39 62.2524 284.591 62.4363C284.792 62.6203 285.03 62.7599 285.29 62.8457C285.549 62.9316 285.825 62.9618 286.097 62.9344ZM286.097 59.529C286.303 59.511 286.51 59.5352 286.706 59.6C286.902 59.6648 287.082 59.769 287.235 59.9059C287.389 60.0428 287.512 60.2096 287.598 60.3959C287.684 60.5821 287.73 60.7838 287.733 60.9885C287.733 62.1236 286.915 62.4479 286.097 62.4479C285.891 62.466 285.684 62.4418 285.488 62.377C285.292 62.3121 285.112 62.208 284.958 62.0711C284.805 61.9342 284.681 61.7674 284.596 61.5811C284.51 61.3949 284.464 61.1931 284.46 60.9885C284.46 59.8534 285.279 59.529 286.097 59.529ZM286.915 61.9615L286.751 61.475C286.751 61.3128 286.588 61.1507 286.424 60.9885C286.588 60.8263 286.751 60.8263 286.751 60.502C286.751 60.0155 286.26 59.8534 285.933 59.8534H285.279V61.9615H285.77V61.1507H286.097C286.26 61.1507 286.26 61.475 286.26 61.6371L286.424 61.9615H286.915ZM286.097 60.3398C286.424 60.3398 286.424 60.3398 286.424 60.6642C286.424 60.8263 286.26 60.9885 285.77 60.9885V60.3398H286.097Z" fill="#F99D1C"/>
</g>
<defs>
<clipPath id="clip0_445_1671">
<rect width="320" height="66" fill="white" transform="translate(0.387695 0.339844)"/>
</clipPath>
</defs>
</svg>
