<svg width="185" height="73" viewBox="0 0 185 73" fill="none" xmlns="http://www.w3.org/2000/svg">
<path d="M55.2678 11.9082C55.3723 11.9082 63.6606 11.9082 63.7472 11.9082C63.8308 11.9082 63.8846 11.7828 63.8667 11.723C61.8931 5.36276 56.3666 0.877718 49.3651 0.340229C49.2546 0.331268 49.1949 0.480573 49.2666 0.567168C52.1418 3.59204 54.1691 7.41716 55.0797 11.7589C55.0887 11.8067 55.1693 11.9082 55.2678 11.9082Z" fill="#82C2EB"/>
<path d="M40.0206 16.9814C40.0206 21.8277 43.281 25.2079 47.9357 25.2079C49.6197 25.2079 51.1095 24.763 52.3396 23.9777C52.4143 23.9239 52.5009 24.0016 52.4561 24.0912C50.7065 28.1761 47.449 31.3323 43.3079 32.9747C43.2392 32.9986 42.9794 33.0045 42.9078 32.9836C35.9929 30.9471 31.2188 24.7481 31.2188 16.9814C31.2188 9.22361 35.9929 3.02159 42.9078 0.982116C42.9794 0.964199 43.2392 0.973155 43.3079 0.997045C47.449 2.63937 50.7065 5.79264 52.4561 9.87755C52.5009 9.97311 52.4143 10.0448 52.3396 9.99401C51.1095 9.20569 49.6197 8.75778 47.9357 8.75778C43.281 8.75778 40.0206 12.144 40.0206 16.9814Z" fill="#2B7AC7"/>
<path d="M55.2678 22.0605C55.3723 22.0605 63.6606 22.0605 63.7472 22.0605C63.8308 22.0605 63.8846 22.1919 63.8667 22.2487C61.8931 28.606 56.3666 33.091 49.3651 33.6345C49.2546 33.6434 49.1949 33.4882 49.2666 33.4016C52.1418 30.3827 54.1691 26.5486 55.0797 22.2098C55.0887 22.1651 55.1693 22.0605 55.2678 22.0605Z" fill="#82C2EB"/>
<path d="M18.5231 60.0885C18.0723 62.2773 16.1405 66.5891 10.0586 66.5891C4.00661 66.5891 0.635742 62.9521 0.635742 57.7056C0.635742 52.6891 3.71699 48.8281 10.0586 48.8281C15.7852 48.8281 18.0036 52.4024 18.3917 54.8122H16.0121C15.2747 51.9515 13.0264 50.8258 10.0586 50.8258C5.26359 50.8258 3.01535 53.8447 3.01535 57.7056C3.01535 61.8592 5.52036 64.5945 10.0586 64.5945C13.5698 64.5945 15.5285 62.6953 16.1405 60.0885H18.5231Z" fill="#8C8A8C"/>
<path d="M70.0565 55.4601C70.0565 52.4024 68.5188 50.8258 65.0733 50.8258C61.4069 50.8258 59.3796 52.9459 59.3796 56.1977V66.0726H56.997V54.7465C56.997 52.6264 55.4862 50.8258 52.2408 50.8258C48.8281 50.8258 46.3201 52.7876 46.3201 56.6456V66.0726H43.9375V49.3447H46.3201V52.4323H46.3768C47.386 50.6645 49.1863 48.8281 53.0081 48.8281C56.776 48.8281 58.5077 50.8258 58.9974 52.498C59.7946 50.8258 62.21 48.8281 65.551 48.8281C70.2535 48.8281 72.445 51.208 72.445 54.6479V66.0726H70.0564L70.0565 55.4601Z" fill="#8C8A8C"/>
<path d="M76.7568 49.3447H79.1394V52.6891H79.1961C79.847 51.2767 81.3817 48.8281 86.0185 48.8281C92.8647 48.8281 95.1189 53.6237 95.1189 57.7056C95.1189 62.3758 92.2646 66.5891 86.0185 66.5891C82.8656 66.5891 80.2919 64.8513 79.1961 62.7342H79.1394V72.3403H76.7568V49.3447ZM86.0185 64.5945C89.7865 64.5945 92.7423 61.9548 92.7423 57.7056C92.7423 54.3643 90.8792 50.8258 86.0185 50.8258C82.0624 50.8258 79.0021 53.3281 79.0021 57.7056C79.0021 61.1486 81.1548 64.5945 86.0185 64.5945Z" fill="#8C8A8C"/>
<path d="M116.383 60.7335C115.424 63.6927 112.916 66.5891 107.381 66.5891C100.531 66.5891 98.2803 61.7965 98.2803 57.7056C98.2803 53.0444 101.138 48.8281 107.381 48.8281C111.692 48.8281 116.807 50.6944 116.807 58.2879H100.654C100.654 61.7667 103.135 64.5945 107.381 64.5945C111.367 64.5945 113.17 63.2776 114.012 60.7335H116.383ZM114.421 56.4844C113.743 52.3696 110.728 50.8258 107.536 50.8258C104.482 50.8258 101.2 52.4024 100.654 56.4844H114.421Z" fill="#8C8A8C"/>
<path d="M126.845 43.1396V66.0725H129.227V43.1396H126.845ZM120.282 66.0725H122.662V43.1396H120.282V66.0725Z" fill="#8C8A8C"/>
<path d="M151.002 60.7335C150.035 63.6927 147.532 66.5891 142 66.5891C135.148 66.5891 132.894 61.7965 132.894 57.7056C132.894 53.0444 135.748 48.8281 142 48.8281C146.299 48.8281 151.426 50.6944 151.426 58.2879H135.267C135.267 61.7667 137.739 64.5945 142 64.5945C145.986 64.5945 147.783 63.2776 148.628 60.7335H151.002ZM149.043 56.4844C148.365 52.3696 145.338 50.8258 142.158 50.8258C139.095 50.8258 135.82 52.4024 135.267 56.4844H149.043Z" fill="#8C8A8C"/>
<path d="M169.185 55.2929C169.185 51.9844 167.152 50.8258 164.133 50.8258C159.466 50.8258 157.344 53.2057 157.344 57.0009V66.0726H154.961V49.3447H157.344V52.6264H157.4C158.111 50.8527 160.622 48.8281 164.324 48.8281C169.886 48.8281 171.567 51.7246 171.567 55.714V66.0726H169.185L169.185 55.2929Z" fill="#8C8A8C"/>
<path d="M177.482 45.9014H179.862V49.3443H184.591V51.1449H179.862V62.2082C179.862 63.6624 180.313 64.3372 182.239 64.3372C183.403 64.3372 184.143 64.2357 184.591 64.1431V66.1378C183.69 66.2692 182.758 66.3349 181.979 66.3349C178.285 66.3349 177.482 64.8807 177.482 62.1843V51.1449H173.846V49.3443H177.482V45.9014Z" fill="#8C8A8C"/>
<path d="M36.3959 50.3206C36.1063 50.1354 35.9063 50.3922 36.1003 50.7088C37.9336 53.5933 38.4561 57.2243 37.414 60.2402C37.3513 60.4104 37.2916 60.5747 37.223 60.7299C37.1812 60.8404 37.1423 60.9509 37.0976 61.0644L37.0647 61.0465C35.9958 63.2144 33.8163 64.5939 30.7141 64.5939C26.2117 64.5939 23.6022 61.7243 23.6022 57.7051C23.6022 53.6889 26.2117 50.8252 30.7141 50.8252C32.3353 50.8252 33.6789 51.2045 34.7747 51.8704C35.0374 52.0376 35.1628 51.8345 34.9478 51.5688C33.8969 50.2937 31.0187 48.1557 27.2507 49.3143C23.7903 50.3863 21.2285 53.2559 21.2285 57.7051C21.2285 62.3753 24.2739 66.5886 30.7141 66.5886C37.1483 66.5886 40.2027 62.3753 40.2027 57.7051C40.2027 54.7399 38.9576 51.9509 36.3959 50.3206Z" fill="#8C8A8C"/>
</svg>
