<svg width="271" height="73" viewBox="0 0 271 73" fill="none" xmlns="http://www.w3.org/2000/svg">
<path d="M161.76 22.6407C160.414 22.6407 159.168 22.9457 158.028 23.5468C156.887 24.1559 155.936 24.9717 155.183 26.0028L153.374 23.1816H152.27V50.9373H155.585V31.1788C155.585 30.5096 155.714 29.8847 155.962 29.2949C156.212 28.7073 156.556 28.1978 156.986 27.7655C157.419 27.3313 157.926 26.9877 158.512 26.7344C159.096 26.4817 159.723 26.3557 160.386 26.3557H163.704V22.6407H161.76ZM146.308 34.7283H134.495V30.6095C134.495 29.9426 134.62 29.3129 134.873 28.7253C135.125 28.1377 135.466 27.6283 135.897 27.1972C136.328 26.7594 136.836 26.4178 137.42 26.1651C138.004 25.9122 138.631 25.7862 139.296 25.7862H141.505C142.171 25.7862 142.795 25.9122 143.384 26.1651C143.963 26.4178 144.475 26.7594 144.905 27.1972C145.339 27.6283 145.679 28.1377 145.93 28.7253C146.182 29.3129 146.308 29.9426 146.308 30.6095V34.7283ZM147.25 25.0273C146.514 24.2854 145.652 23.7046 144.665 23.2793C143.674 22.8551 142.623 22.6407 141.505 22.6407H139.296C138.183 22.6407 137.13 22.8551 136.138 23.2793C135.151 23.7046 134.289 24.2854 133.552 25.0273C132.812 25.7678 132.233 26.6322 131.811 27.6283C131.389 28.6208 131.175 29.6806 131.175 30.8001V43.3236C131.175 44.4396 131.389 45.4994 131.811 46.4929C132.233 47.4887 132.812 48.3553 133.552 49.0974C134.289 49.8348 135.151 50.4201 136.138 50.8396C137.13 51.2684 138.183 51.4773 139.296 51.4773H141.505C142.623 51.4773 143.674 51.2684 144.665 50.8396C145.652 50.4201 146.514 49.8348 147.25 49.0974C147.988 48.3553 148.571 47.4887 148.988 46.4929C149.415 45.4994 149.626 44.4396 149.626 43.3236V42.2092L146.308 41.6676V43.5091C146.308 44.1786 146.182 44.807 145.93 45.3968C145.679 45.9802 145.339 46.4929 144.905 46.9259C144.475 47.3595 143.963 47.7066 143.384 47.9535C142.795 48.21 142.171 48.3376 141.505 48.3376H139.296C138.631 48.3376 138.004 48.21 137.42 47.9535C136.836 47.7066 136.328 47.3595 135.897 46.9259C135.466 46.4929 135.125 45.9802 134.873 45.3968C134.62 44.807 134.495 44.1786 134.495 43.5091V37.3328H149.626V30.8001C149.626 29.6806 149.415 28.6208 148.988 27.6283C148.571 26.6322 147.988 25.7678 147.25 25.0273ZM120.113 44.2172L120.005 45.6511L119.896 44.2172L112.698 23.1816H109.378L119.171 50.9373H120.814L130.606 23.1816H127.287L120.113 44.2172ZM103.691 50.9373H107.01V12.9531H103.691V50.9373ZM96.7908 16.5149H100.648V12.9531H96.7908V16.5149ZM97.0624 50.9373H100.379V23.1816H97.0624V50.9373ZM92.1001 38.3367C91.3905 37.7366 90.5802 37.2512 89.6736 36.87C88.7671 36.4923 87.8382 36.1519 86.8941 35.8527C85.9514 35.5553 85.025 35.267 84.1184 34.9858C83.2097 34.71 82.4006 34.3587 81.6897 33.9434C80.9804 33.5294 80.4099 33.0164 79.9787 32.4118C79.5451 31.8062 79.3303 31.028 79.3303 30.0686C79.3303 29.399 79.4569 28.8047 79.7074 28.2795C79.9585 27.7543 80.3012 27.3084 80.7322 26.9362C81.1661 26.5666 81.6731 26.2808 82.2567 26.0835C82.8406 25.8836 83.4643 25.7862 84.13 25.7862H86.0739C86.737 25.7862 87.3607 25.9122 87.9491 26.1651C88.5308 26.4178 89.0387 26.7594 89.4723 27.1972C89.9032 27.6283 90.2464 28.1377 90.4965 28.7253C90.7466 29.3129 90.8742 29.9426 90.8742 30.6095V31.4501L94.1902 30.9065V30.8001C94.1902 29.6806 93.9799 28.6208 93.5575 27.6283C93.1343 26.6322 92.5526 25.7678 91.8195 25.0273C91.0804 24.2854 90.2159 23.7046 89.2266 23.2793C88.2387 22.8551 87.1862 22.6407 86.0739 22.6407H84.13C83.015 22.6407 81.9693 22.8264 80.9894 23.1987C80.0094 23.5651 79.1517 24.0858 78.4148 24.7573C77.6747 25.4242 77.093 26.223 76.6617 27.1551C76.2262 28.0866 76.0111 29.1107 76.0111 30.2283C76.0111 31.55 76.2262 32.6535 76.6617 33.5361C77.093 34.422 77.6634 35.1606 78.3728 35.7459C79.0824 36.3335 79.8905 36.8076 80.8015 37.1683C81.708 37.5302 82.637 37.8513 83.59 38.1293C84.5452 38.4103 85.4742 38.6893 86.383 38.9708C87.2914 39.2511 88.0998 39.605 88.8114 40.0271C89.521 40.4513 90.0937 40.9823 90.5215 41.6127C90.9547 42.2459 91.1686 43.0559 91.1686 44.0517C91.1686 44.7212 91.0294 45.32 90.7533 45.8414C90.4727 46.3682 90.096 46.8172 89.6182 47.1827C89.1429 47.5543 88.5988 47.8384 87.9889 48.0377C87.3764 48.2351 86.737 48.3376 86.0739 48.3376H83.8616C83.1962 48.3376 82.5555 48.21 81.9466 47.9535C81.3344 47.7066 80.7948 47.3595 80.3259 46.9259C79.8587 46.4929 79.4877 45.9802 79.2091 45.3968C78.9285 44.807 78.7893 44.1786 78.7893 43.5091V41.6676L75.4736 42.2092V43.3236C75.4736 44.4396 75.7032 45.4994 76.1618 46.4929C76.621 47.4887 77.2299 48.3553 77.9947 49.0974C78.7598 49.8348 79.6471 50.4201 80.6646 50.8396C81.682 51.2684 82.7457 51.4773 83.8616 51.4773H86.0739C87.1862 51.4773 88.2525 51.2957 89.2674 50.9235C90.2858 50.5535 91.1801 50.0344 91.9516 49.3674C92.7257 48.6982 93.3379 47.8972 93.7875 46.967C94.2367 46.0368 94.4618 45.0137 94.4618 43.8906C94.4618 42.5702 94.2466 41.4651 93.8157 40.5716C93.3844 39.6764 92.8117 38.931 92.1001 38.3367Z" fill="#898B8D"/>
<path d="M35.5248 7.55304C33.4652 7.55304 33.0041 8.47744 32.9426 9.92567C32.9426 10.0181 32.9734 10.1722 32.9119 11.3739C31.836 28.691 24.6735 41.8791 11.7012 52.2324C17.5418 49.829 23.5976 48.3191 29.6842 47.6104C38.0148 36.5792 42.1339 25.5789 42.4413 10.7576C42.4413 10.5111 42.4413 7.55304 42.4413 7.55304H35.5248Z" fill="url(#paint0_linear_445_1694)"/>
<path d="M5.94931 57.1255C5.78737 57.2337 3.19629 58.6947 3.19629 58.6947L6.65106 64.7008C7.67669 66.4864 8.70233 66.4323 9.99786 65.783C10.1058 65.7289 10.2138 65.6206 11.2394 65.0796C26.7859 57.3419 41.7385 56.9632 57.177 63.0234C52.1568 59.1816 47.8384 54.6906 44.2217 49.7666C41.1448 49.3338 38.1758 49.1714 35.2609 49.1714C25.2204 49.1714 16.0437 51.5522 5.94931 57.1255Z" fill="url(#paint1_linear_445_1694)"/>
<path d="M38.7998 36.1141C44.1519 48.8797 51.6318 57.9287 64.2704 65.6204C64.4639 65.7497 67.0432 67.2363 67.0432 67.2363L70.493 61.2252C71.5569 59.4154 70.9443 58.5751 69.7514 57.7995C69.6547 57.7348 69.4935 57.7025 68.494 57.0238C54.0822 47.4254 46.2475 34.6274 43.7972 18.1776C42.9589 24.4796 41.2501 30.4907 38.7998 36.1141Z" fill="url(#paint2_linear_445_1694)"/>
<path d="M186.121 43.5081C186.121 44.1799 185.994 44.806 185.74 45.3958C185.489 45.9789 185.147 46.4942 184.717 46.9249C184.283 47.3604 183.776 47.7034 183.192 47.9502C182.608 48.209 181.983 48.3363 181.32 48.3363H179.107C178.441 48.3363 177.818 48.209 177.23 47.9502C176.651 47.7034 176.139 47.3604 175.705 46.9249C175.275 46.4942 174.935 45.9789 174.684 45.3958C174.433 44.806 174.306 44.1799 174.306 43.5081V30.6085C174.306 29.9422 174.433 29.3128 174.684 28.723C174.935 28.1342 175.275 27.6286 175.705 27.194C176.139 26.7594 176.651 26.4181 177.23 26.1651C177.818 25.9086 178.441 25.7839 179.107 25.7839H181.32C181.983 25.7839 182.608 25.9086 183.192 26.1651C183.776 26.4181 184.283 26.7594 184.717 27.194C185.147 27.6286 185.489 28.1342 185.74 28.723C185.994 29.3128 186.121 29.9422 186.121 30.6085V43.5081ZM187.062 25.0259C186.324 24.2854 185.464 23.7023 184.473 23.2771C183.484 22.8537 182.436 22.6406 181.32 22.6406H180.48C179.132 22.6406 177.887 22.9447 176.746 23.5471C175.605 24.1549 174.657 24.9707 173.901 25.9996L172.095 23.1819H170.99V61.2931H174.306V48.604C175.06 49.5114 175.968 50.2173 177.031 50.7203C178.09 51.2266 179.24 51.4782 180.48 51.4782H181.32C182.436 51.4782 183.484 51.2674 184.473 50.8386C185.464 50.4191 186.324 49.8361 187.062 49.0964C187.8 48.3543 188.379 47.4877 188.8 46.4942C189.226 45.4981 189.436 44.4386 189.436 43.3178V30.7966C189.436 29.6796 189.226 28.6198 188.8 27.6286C188.379 26.6312 187.8 25.7646 187.062 25.0259Z" fill="#4E5155"/>
<path d="M207.156 34.7273H195.339V30.6085C195.339 29.9416 195.468 29.3132 195.717 28.7221C195.97 28.1367 196.31 27.6286 196.742 27.1962C197.175 26.7594 197.682 26.4181 198.266 26.1641C198.854 25.9112 199.474 25.7864 200.141 25.7864H202.353C203.019 25.7864 203.643 25.9112 204.227 26.1641C204.811 26.4181 205.323 26.7594 205.753 27.1962C206.182 27.6286 206.524 28.1367 206.775 28.7221C207.029 29.3132 207.156 29.9416 207.156 30.6085V34.7273ZM208.098 25.0263C207.36 24.2857 206.5 23.7046 205.508 23.2771C204.521 22.8541 203.466 22.6406 202.353 22.6406H200.141C199.026 22.6406 197.976 22.8541 196.984 23.2771C195.997 23.7046 195.136 24.2857 194.395 25.0263C193.657 25.7672 193.08 26.6315 192.657 27.6286C192.234 28.6198 192.025 29.6796 192.025 30.7966V43.3226C192.025 44.4386 192.234 45.4984 192.657 46.4919C193.08 47.4877 193.657 48.3546 194.395 49.0964C195.136 49.8361 195.997 50.4191 196.984 50.8386C197.976 51.2674 199.026 51.4782 200.141 51.4782H202.353C203.466 51.4782 204.521 51.2674 205.508 50.8386C206.5 50.4191 207.36 49.8361 208.098 49.0964C208.835 48.3546 209.415 47.4877 209.835 46.4919C210.261 45.4984 210.472 44.4386 210.472 43.3226V42.6467L207.156 41.6666V43.5081C207.156 44.1799 207.029 44.8083 206.775 45.3958C206.524 45.9792 206.182 46.4919 205.753 46.9249C205.323 47.3585 204.811 47.7056 204.227 47.9551C203.643 48.209 203.019 48.3366 202.353 48.3366H200.141C199.474 48.3366 198.854 48.209 198.266 47.9551C197.682 47.7056 197.175 47.3585 196.742 46.9249C196.31 46.4919 195.97 45.9792 195.717 45.3958C195.468 44.8083 195.339 44.1799 195.339 43.5081V37.3318H210.472V30.7966C210.472 29.6796 210.261 28.6198 209.835 27.6286C209.415 26.6315 208.835 25.7672 208.098 25.0263Z" fill="#4E5155"/>
<path d="M228.069 43.51C228.069 44.1818 227.942 44.808 227.693 45.3978C227.438 45.9809 227.096 46.4961 226.666 46.9268C226.235 47.3624 225.725 47.7053 225.143 47.9522C224.559 48.2109 223.932 48.3382 223.266 48.3382H221.057C220.39 48.3382 219.767 48.2109 219.183 47.9522C218.599 47.7053 218.09 47.3624 217.658 46.9268C217.225 46.4961 216.884 45.9809 216.632 45.3978C216.381 44.808 216.254 44.1818 216.254 43.51V42.3439C216.254 41.6769 216.381 41.0511 216.632 40.4613C216.884 39.8734 217.225 39.3598 217.658 38.9188C218.09 38.4752 218.599 38.129 219.183 37.876C219.767 37.6221 220.39 37.4948 221.057 37.4948H228.069V43.51ZM229.013 25.0279C228.277 24.2873 227.413 23.7043 226.426 23.279C225.434 22.8557 224.38 22.6426 223.266 22.6426H221.329C220.208 22.6426 219.158 22.8557 218.169 23.279C217.182 23.7043 216.318 24.2873 215.58 25.0279C214.842 25.7665 214.262 26.6331 213.842 27.6305C213.421 28.6218 213.208 29.6815 213.208 30.7985V30.9245L216.526 31.8955V30.6105C216.526 29.9441 216.649 29.3148 216.902 28.725C217.156 28.1361 217.495 27.6305 217.924 27.1959C218.357 26.7614 218.866 26.42 219.45 26.167C220.032 25.9105 220.659 25.7858 221.329 25.7858H223.266C223.932 25.7858 224.559 25.9105 225.143 26.167C225.725 26.42 226.235 26.7614 226.666 27.1959C227.096 27.6305 227.438 28.1361 227.693 28.725C227.942 29.3148 228.069 29.9441 228.069 30.6105V34.8948H221.057C219.944 34.8948 218.889 35.106 217.898 35.5312C216.911 35.9542 216.049 36.535 215.313 37.2756C214.571 38.02 213.996 38.8866 213.57 39.8805C213.149 40.874 212.937 41.9312 212.937 43.052V43.3198C212.937 44.4406 213.149 45.5 213.57 46.4961C213.996 47.4896 214.571 48.3562 215.313 49.0984C216.049 49.838 216.911 50.4211 217.898 50.8405C218.889 51.2693 219.944 51.4802 221.057 51.4802H221.895C223.239 51.4802 224.48 51.1784 225.614 50.5709C226.743 49.9672 227.693 49.1662 228.445 48.1746L230.278 50.9379H231.387V30.7985C231.387 29.6815 231.175 28.6218 230.751 27.6305C230.33 26.6331 229.748 25.7665 229.013 25.0279Z" fill="#4E5155"/>
<path d="M237.476 12.9531H234.16V50.936H237.476V12.9531Z" fill="#4E5155"/>
<path d="M248.435 23.1836L237.161 37.0622L248.435 50.938H252.753L241.206 37.0622L252.753 23.1836H248.435Z" fill="#4E5155"/>
<path d="M267.556 23.1992V28.5012H266.637V24.1326L264.663 28.5012H264.057L262.146 24.1326V28.5012H261.232V23.1992H262.721L264.364 26.8699L266.098 23.1992H267.556ZM260.213 23.1992V24.0433H258.342V28.5012H257.421V24.0433H255.564V23.1992H260.213Z" fill="#4E5155"/>
<defs>
<linearGradient id="paint0_linear_445_1694" x1="11.7012" y1="29.8928" x2="42.4413" y2="29.8928" gradientUnits="userSpaceOnUse">
<stop stop-color="#39393C"/>
<stop offset="0.97" stop-color="#8A8A8D"/>
<stop offset="1" stop-color="#8A8A8D"/>
</linearGradient>
<linearGradient id="paint1_linear_445_1694" x1="3.19629" y1="57.6766" x2="57.177" y2="57.6766" gradientUnits="userSpaceOnUse">
<stop stop-color="#A8CEDB"/>
<stop offset="0.27" stop-color="#87C1EA"/>
<stop offset="0.6" stop-color="#4A71A0"/>
<stop offset="0.97" stop-color="#3C5E8F"/>
<stop offset="1" stop-color="#3C5E8F"/>
</linearGradient>
<linearGradient id="paint2_linear_445_1694" x1="38.7998" y1="42.7068" x2="71.0411" y2="42.7068" gradientUnits="userSpaceOnUse">
<stop stop-color="#3C5E8F"/>
<stop offset="0.34" stop-color="#4A71A0"/>
<stop offset="0.8" stop-color="#87C1EA"/>
<stop offset="1" stop-color="#A8CEDB"/>
</linearGradient>
</defs>
</svg>
