<svg width="340" height="114" viewBox="0 0 340 114" fill="none" xmlns="http://www.w3.org/2000/svg">
<g clip-path="url(#clip0_445_1747)">
<path d="M88.226 41.2603L90.2976 42.0561C95.6195 44.098 98.2847 50.0765 96.2469 55.4093L74.0947 113.413L57.9199 91.6798L74.9001 47.2218C76.9379 41.889 82.9041 39.2183 88.226 41.2603Z" fill="#C92127"/>
<path d="M23.365 0.412987L39.5397 22.1464L22.4521 66.8847C18.7016 76.7064 23.6109 87.7147 33.4095 91.4729C35.2833 92.1922 37.1996 92.5944 39.0988 92.6992C32.7878 95.0639 25.6175 95.2197 18.8316 92.617C18.8316 92.617 16.1015 91.5691 13.6257 89.9888C9.27038 87.2049 0.133057 79.0429 -0.132612 66.9499C-0.186312 64.5539 0.0765311 60.4191 2.30928 55.5338C9.3269 37.1592 16.3445 18.7847 23.3622 0.410156L23.365 0.412987Z" fill="#C92127"/>
<path d="M94.7446 35.1533C95.1459 35.9293 95.5162 36.7138 95.8384 37.5067C90.118 32.1456 81.4272 30.6984 74.0818 34.5359C69.7971 36.7704 66.7193 40.4153 65.1168 44.6068L53.238 75.7058C52.4806 77.6911 51.172 79.3111 49.5611 80.4524C46.8422 82.3811 43.25 82.9531 39.9094 81.673L37.8377 80.8772C32.5158 78.8353 29.8507 72.8568 31.8912 67.5183L44.9599 33.2983C45.2962 32.477 45.8643 31.262 46.7885 29.9451C49.4311 26.1756 52.9187 24.4877 56.0841 22.9555C57.9579 22.0493 60.6457 20.772 64.4866 20.1121C67.5361 19.5882 70.6139 19.5712 73.6098 20.0271C82.3458 21.3554 90.3498 26.6995 94.7446 35.1533Z" fill="#C92127"/>
<path d="M247.903 81.9124V81.8643H248.929V81.9804C248.929 84.2008 250.235 85.0192 253.338 85.0192C256.184 85.0192 257.21 84.3169 257.21 82.7762C257.21 81.3743 256.371 80.8844 254.271 80.5559L251.261 80.1112C249.254 79.8082 247.903 79.0605 247.903 77.1659C247.903 75.1324 249.91 73.9883 252.801 73.9883C255.927 73.9883 258.072 75.3448 258.072 78.007V78.0523H257.046V77.9362C257.046 75.9509 255.975 74.8747 252.779 74.8747C250.096 74.8747 248.929 75.5516 248.929 77.1659C248.929 78.5224 249.63 79.0124 251.682 79.3154L254.596 79.7601C256.834 80.0886 258.233 80.8816 258.233 82.7281C258.233 84.9003 256.111 85.9312 253.335 85.9312C249.93 85.9312 247.9 84.5519 247.9 81.9124H247.903Z" fill="#0B0A0A"/>
<path d="M260.661 89.6727V88.7155H262.038C263.298 88.7155 263.765 88.319 264.276 87.2655L265.022 85.654L259.308 74.2266H260.427L264.112 81.5871L265.489 84.439H265.582L266.936 81.5871L270.457 74.2266H271.554L265.164 87.5713C264.44 89.1148 263.507 89.6756 261.97 89.6756H260.664L260.661 89.6727Z" fill="#0B0A0A"/>
<path d="M272.766 81.9124V81.8643H273.791V81.9804C273.791 84.2008 275.097 85.0192 278.2 85.0192C281.046 85.0192 282.072 84.3169 282.072 82.7762C282.072 81.3743 281.233 80.8844 279.133 80.5559L276.123 80.1112C274.116 79.8082 272.766 79.0605 272.766 77.1659C272.766 75.1324 274.772 73.9883 277.663 73.9883C280.789 73.9883 282.934 75.3448 282.934 78.007V78.0523H281.908V77.9362C281.908 75.9509 280.837 74.8747 277.641 74.8747C274.959 74.8747 273.791 75.5516 273.791 77.1659C273.791 78.5224 274.492 79.0124 276.544 79.3154L279.458 79.7601C281.697 80.0886 283.096 80.8816 283.096 82.7281C283.096 84.9003 280.973 85.9312 278.198 85.9312C274.792 85.9312 272.763 84.5519 272.763 81.9124H272.766Z" fill="#0B0A0A"/>
<path d="M289.836 85.6994C287.714 85.6994 286.315 84.8582 286.315 82.2187V75.1385H284.192V74.2266H286.315V71.2812H287.363V74.2266H292.191V75.1385H287.363V82.4765C287.363 84.2522 288.274 84.7421 290.094 84.7421H292.194V85.6994H289.839H289.836Z" fill="#0B0A0A"/>
<path d="M293.545 79.9509C293.545 76.5382 295.783 73.9922 299.469 73.9922C302.665 73.9922 305.02 75.9095 305.02 79.274C305.02 79.696 304.972 80.0698 304.904 80.3247H294.548C294.642 83.1766 296.134 85.0231 299.446 85.0231C302.385 85.0231 303.83 83.879 303.83 81.9617V81.8201H304.856V81.9617C304.856 84.3208 302.501 85.9351 299.469 85.9351C295.806 85.9351 293.545 83.4343 293.545 79.9537V79.9509ZM294.548 79.577H304.039C304.061 79.3901 304.061 79.2259 304.061 79.039C304.061 76.3513 302.335 74.8786 299.443 74.8786C296.131 74.8786 294.639 76.7251 294.545 79.577H294.548Z" fill="#0B0A0A"/>
<path d="M307.444 85.6989V74.2233H308.354V77.6587H308.425C308.753 75.7187 310.152 73.9883 312.995 73.9883C315.539 73.9883 317.006 75.5544 317.404 77.8201H317.497C317.822 75.8348 319.269 73.9883 322.115 73.9883C325.125 73.9883 326.711 76.1605 326.711 79.154V85.6989H325.685V79.086C325.685 76.3049 324.45 74.9257 321.884 74.9257C318.899 74.9257 317.593 76.7949 317.593 80.2075V85.6989H316.568V79.086C316.568 76.3049 315.332 74.9257 312.789 74.9257C309.756 74.9257 308.499 76.7949 308.499 80.2075V85.6989H307.45H307.444Z" fill="#0B0A0A"/>
<path d="M329.11 81.9124V81.8643H330.136V81.9804C330.136 84.2008 331.442 85.0192 334.545 85.0192C337.391 85.0192 338.417 84.3169 338.417 82.7762C338.417 81.3743 337.578 80.8844 335.478 80.5559L332.471 80.1112C330.464 79.8082 329.113 79.0605 329.113 77.1659C329.113 75.1324 331.12 73.9883 334.011 73.9883C337.137 73.9883 339.282 75.3448 339.282 78.007V78.0523H338.256V77.9362C338.256 75.9509 337.182 74.8747 333.988 74.8747C331.306 74.8747 330.139 75.5516 330.139 77.1659C330.139 78.5224 330.837 79.0124 332.892 79.3154L335.809 79.7601C338.047 80.0886 339.446 80.8816 339.446 82.7281C339.446 84.9003 337.323 85.9312 334.548 85.9312C331.142 85.9312 329.113 84.5519 329.113 81.9124H329.11Z" fill="#0B0A0A"/>
<path d="M124.371 65.3108C115.267 65.3108 110.666 62.4957 110.666 56.8656V54.294C110.666 48.6157 115.267 45.8488 124.371 45.8488H145.098V45.8006C145.098 43.9569 142.775 42.793 137.349 42.793H132.796C131.343 42.793 131.004 41.9688 131.004 40.3659C131.004 38.7629 131.343 37.8906 132.796 37.8906H137.541C146.644 37.8906 151.246 40.6576 151.246 46.3359V56.8656C151.246 62.4957 146.644 65.3108 137.541 65.3108H124.368H124.371ZM145.098 56.8656V50.5557H124.566C119.142 50.5557 116.816 52.1077 116.816 54.0986V56.8656C116.816 58.8055 119.139 60.4085 124.566 60.4085H137.352C142.775 60.4085 145.101 58.8055 145.101 56.8656H145.098Z" fill="#0B0A0A"/>
<path d="M205.538 63.2275V46.3398C205.538 44.3488 203.599 42.7969 198.175 42.7969H195.462C190.086 42.7969 188.439 44.3488 188.439 46.3398V63.2275C188.439 65.0712 187.421 65.5073 185.338 65.5073C183.255 65.5073 182.286 64.9749 182.286 63.2275V46.3398C182.286 44.3488 180.638 42.7969 175.263 42.7969H172.549C167.126 42.7969 165.187 44.3488 165.187 46.3398V63.2275C165.187 65.0712 164.17 65.5073 162.087 65.5073C160.004 65.5073 159.037 65.0712 159.037 63.2275V46.3398C159.037 40.6615 163.638 37.8945 171.484 37.8945H176.277C180.296 37.8945 183.397 38.7187 185.333 40.3216C187.32 38.7187 190.369 37.8945 194.436 37.8945H199.229C207.075 37.8945 211.676 40.6615 211.676 46.3398V63.2275C211.676 65.0712 210.659 65.5073 208.627 65.5073C206.595 65.5073 205.526 65.0712 205.526 63.2275H205.538Z" fill="#0B0A0A"/>
<path d="M258.712 39.981V56.8687C258.712 62.547 254.111 65.314 245.008 65.314H233.431C224.328 65.314 219.727 62.547 219.727 56.8687V39.981C219.727 38.1373 220.744 37.7012 222.827 37.7012C224.91 37.7012 225.879 38.1373 225.879 39.981V56.8687C225.879 58.8596 228.203 60.4116 233.629 60.4116H244.815C250.239 60.4116 252.565 58.8596 252.565 56.8687V39.981C252.565 38.1373 253.582 37.7012 255.665 37.7012C257.748 37.7012 258.715 38.1373 258.715 39.981H258.712Z" fill="#0B0A0A"/>
<path d="M283.071 37.8945C284.523 37.8945 284.814 38.7668 284.814 40.3698C284.814 41.9727 284.523 42.7969 283.071 42.7969H279.292C274.499 42.7969 272.899 44.06 272.899 46.2916V63.2275C272.899 65.0712 271.881 65.5073 269.798 65.5073C267.715 65.5073 266.746 65.0712 266.746 63.2275V46.2916C266.746 40.7096 271.203 37.8974 279.289 37.8974H283.068L283.071 37.8945Z" fill="#0B0A0A"/>
<path d="M298.228 65.3108C289.125 65.3108 284.523 62.4957 284.523 56.8656V54.294C284.523 48.6157 289.125 45.8488 298.228 45.8488H318.956V45.8006C318.956 43.9569 316.633 42.793 311.206 42.793H306.653C305.2 42.793 304.861 41.9688 304.861 40.3659C304.861 38.7629 305.2 37.8906 306.653 37.8906H311.398C320.502 37.8906 325.103 40.6576 325.103 46.3359V56.8656C325.103 62.4957 320.502 65.3108 311.398 65.3108H298.225H298.228ZM318.956 56.8656V50.5557H298.423C292.999 50.5557 290.673 52.1077 290.673 54.0986V56.8656C290.673 58.8055 292.997 60.4085 298.423 60.4085H311.209C316.633 60.4085 318.959 58.8055 318.959 56.8656H318.956Z" fill="#C92127"/>
<path d="M336.149 29.9355C338.862 29.9355 339.976 30.8588 339.976 32.9432C339.976 35.0276 338.862 35.9509 336.149 35.9509C333.436 35.9509 332.322 35.0305 332.322 32.9432C332.322 30.856 333.436 29.9355 336.149 29.9355ZM339.249 63.2266C339.249 65.0703 338.232 65.5065 336.149 65.5065C334.066 65.5065 333.097 65.0703 333.097 63.2266V40.3208C333.097 38.4771 334.114 38.041 336.149 38.041C338.184 38.041 339.249 38.4771 339.249 40.3208V63.2266Z" fill="#C92127"/>
</g>
<defs>
<clipPath id="clip0_445_1747">
<rect width="340" height="113" fill="white" transform="translate(0 0.339844)"/>
</clipPath>
</defs>
</svg>
