<svg width="1180" height="1374" viewBox="0 0 1180 1374" fill="none" xmlns="http://www.w3.org/2000/svg">
<g clip-path="url(#clip0_1142_1343)">
<g opacity="0.2" clip-path="url(#clip1_1142_1343)">
<path d="M1064.52 512.724L1089.01 522.21C1151.94 546.616 1183.15 617.396 1158.74 680.333L893.382 1364.59L702.996 1106.91L906.396 582.463C930.802 519.526 1001.58 488.318 1064.52 512.724Z" fill="#C92127"/>
<path d="M298.656 26.6359L489.042 284.316L284.362 812.071C239.426 927.909 296.993 1058.26 412.832 1103.2C434.996 1111.79 457.632 1116.64 480.141 1118.02C405.288 1145.64 320.353 1147.09 240.155 1116.01C240.155 1116.01 207.891 1103.49 178.655 1084.65C127.251 1051.52 19.4582 954.595 16.9694 811.691C16.4845 783.379 19.7629 734.52 46.495 676.888C130.548 460.164 214.586 243.408 298.656 26.6359Z" fill="#C92127"/>
<path d="M1142.07 440.893C1146.79 450.096 1151.1 459.369 1154.9 468.761C1087.44 405.104 984.605 387.548 897.444 432.511C846.581 458.712 809.939 501.6 790.742 551.043L648.461 917.932C639.363 941.346 623.815 960.417 604.688 973.84C572.392 996.474 529.826 1003.08 490.336 987.753L465.85 978.267C402.913 953.861 371.704 883.082 396.128 820.096L552.681 416.396C556.712 406.693 563.483 392.386 574.498 376.857C605.98 332.461 647.386 312.68 684.924 294.752C707.146 284.129 739.035 269.174 784.577 261.581C820.686 255.537 857.151 255.52 892.608 261.035C995.989 277.162 1090.47 340.777 1142.07 440.893Z" fill="#C92127"/>
</g>
</g>
<defs>
<clipPath id="clip0_1142_1343">
<rect width="1180" height="1374" fill="white"/>
</clipPath>
<clipPath id="clip1_1142_1343">
<rect width="1201.68" height="1463.91" fill="white" transform="translate(-257 287.212) rotate(-25.1243)"/>
</clipPath>
</defs>
</svg>
