<svg width="235" height="273" viewBox="0 0 235 273" fill="none" xmlns="http://www.w3.org/2000/svg">
<g clip-path="url(#clip0_461_1422)">
<path d="M219.001 101.193L219.001 101.193C231.641 106.033 237.971 120.203 233.132 132.843L233.132 132.844L179.768 272.285L141.274 220.669L182.329 113.398C187.169 100.758 201.34 94.428 213.98 99.2678L219.001 101.193Z" fill="#C92127" stroke="#C92127"/>
<path d="M54.2841 160.599L54.7511 160.777C45.6614 184.532 57.5595 211.157 81.3076 220.247L81.1287 220.714C81.1287 220.714 81.1288 220.714 81.1288 220.714C84.9508 222.178 88.8459 223.105 92.7299 223.522C78.0884 228.444 61.7031 228.498 46.1554 222.547C46.1553 222.547 46.1553 222.547 46.1553 222.547L46.1545 222.547L46.1513 222.546L46.1377 222.541L46.0826 222.519C46.0337 222.5 45.9608 222.471 45.8656 222.433C45.6751 222.358 45.3956 222.245 45.0411 222.097C44.332 221.802 43.3233 221.368 42.1279 220.815C39.7352 219.709 36.6027 218.131 33.6282 216.236C23.1273 209.538 1.15298 189.924 0.514565 160.924L0.51456 160.924C0.385605 155.182 1.01588 145.261 6.38747 133.532L6.39413 133.517L6.39984 133.502L57.0996 1.0256L95.5993 52.6502L54.2841 160.599Z" fill="#C92127" stroke="#C92127"/>
<path d="M157.689 106.719L157.689 106.719L128.899 181.936L128.899 181.936C127.1 186.642 123.992 190.481 120.166 193.187L120.166 193.187C113.707 197.759 105.175 199.114 97.2411 196.08L92.2206 194.156L92.2205 194.155C79.5802 189.316 73.25 175.145 78.0967 162.491L78.0968 162.491L109.768 79.7309C110.574 77.7676 111.934 74.8671 114.144 71.724L114.144 71.7238C120.466 62.7249 128.805 58.6894 136.481 54.9814C141.012 52.7944 147.475 49.7306 156.713 48.1469C164.05 46.8889 171.455 46.848 178.664 47.9429L178.664 47.9429C199.685 51.1325 218.943 63.9648 229.518 84.2634C230.135 85.454 230.72 86.6515 231.265 87.856C217.268 75.9944 196.94 73.0835 179.652 82.0963C169.155 87.5594 161.614 96.4716 157.689 106.719Z" fill="#C92127" stroke="#C92127"/>
</g>
<defs>
<clipPath id="clip0_461_1422">
<rect width="235" height="273" fill="white"/>
</clipPath>
</defs>
</svg>
